<svg version="1.1" id="lotus" xmlns="http://www.w3.org/2000/svg" xmlns:xlink="http://www.w3.org/1999/xlink" x="0px" y="0px" viewBox="-124.761 131.486 143.38 143.381" enable-background="new -124.761 131.486 143.38 143.381" xml:space="preserve">
  <path fill="#f7f4f0" d="M-38.09,248.391c-8.116-10.826-9.197-33.68-2.037-42.922c2.897-3.723,5.867-5.708,9.158-6.11
    c6.125-0.697,12.407,4.376,18.517,9.283l1.769,1.452c6.69,5.325,13.565,10.809,21.446,10.363
    c-11.179,8.335-17.062,3.513-24.519-2.617l-0.478-0.402c-4.676-3.827-11.927-8.144-17.077-7.62
    c-3.367,0.345-6.661,2.934-8.211,6.408c-3.007,6.823-2.621,16.473,1.042,25.192c0.614,1.534,1.7,2.44,2.848,2.44
    c0.978,0,1.895-0.444,2.543-1.225c0,0,0.058-0.027,0.058-0.06c0.128,0.425,0.394,1.263,0.497,1.772
    c0.16,0.781,0.22,1.484,0.22,2.13c0,1.745-0.544,2.985-1.573,3.429C-35.2,250.5-36.989,249.839-38.09,248.391"></path>
  <path fill="#f7f4f0" d="M-91.337,210.115c0.036-0.022,1.808-1.473,1.808-1.473c6.083-4.909,12.41-9.981,18.549-9.283
    c3.23,0.401,6.227,2.386,9.137,6.108c7.171,9.244,6.066,32.101-2.045,42.924c-1.096,1.446-2.902,2.108-4.201,1.519
    c-1.017-0.448-1.549-1.684-1.549-3.429c0-0.646,0.038-1.349,0.207-2.115c0.09-0.525,0.325-1.236,0.548-1.729
    c0.64,0.781,1.578,1.225,2.537,1.225c1.162,0,2.209-0.902,2.885-2.44c3.64-8.728,4.031-18.37,1.005-25.203
    c-1.756-4.02-5.397-6.098-8.202-6.395c-5.138-0.526-12.399,3.792-17.074,7.617l-0.473,0.403c-7.459,6.13-13.33,10.952-24.559,2.509
    C-104.834,220.901-97.982,215.421-91.337,210.115"></path>
  <path id="SVGID_15_" fill="#f7f4f0" d="M-17.214,158.166c1.317,0.349,2.331,0.583,3.593,3.425
    c1.169,2.715,2.344,9.625,2.344,17.145c0,6.111-0.776,12.631-2.927,17.632l-0.402,1.044c-0.306,0.695-0.807,1.894-1.212,2.507
    c-1.721-0.99-6.444-3.733-6.444-3.733c-0.131-0.066-1.165-0.729-1.914-1.176c0-0.646,0.044-1.294,0.044-1.915
    c0-12.681-3.798-21.591-5.925-26.62C-29.286,164.374-21.022,157.235-17.214,158.166"></path>
  <path id="SVGID_14_" fill="#f7f4f0" d="M-5.4,176.003c8.766-1.105,17.297-0.342,24.012,2.138c0,0.146,0.005,0.28,0.005,0.424
    c0,7.115-7.346,19.265-14.621,27.096c-3.553,3.851-5.451,4.82-5.993,4.911c-1.012-0.83-6.503-5.295-6.503-5.295l-2.894-2.383
    c-0.134-0.096-0.258-0.191-0.321-0.266C-7.357,195.956-5.4,187.748-5.4,176.003"></path>
  <path id="SVGID_12_" fill="#f7f4f0" d="M-15.268,222.299c0.104,0.122,0.066,0.451-0.604,1.175
    c-5.505,5.772-18.926,7.378-19.066,7.385c-1.444,0.212-1.83,0.004-1.83,0c-0.231-1.77-0.356-3.467-0.356-5.047
    c0-6.521,2.029-11.188,5.625-12.149C-27.194,212.509-20.306,217.381-15.268,222.299"></path>
  <path id="SVGID_11_" fill="#f7f4f0" d="M-53.619,245.184c-0.128-1.508-0.194-3.062-0.194-4.679c0-1.606,0.065-3.294,0.106-5.023
    l0.088-5.024l0.038-2.243v-4.017c0-13.229-1.092-22.894-14.137-28.325l-1.903-0.743l-1.851-0.866
    c-0.799-0.477-1.027-1.91-1.027-3.556c0-1.283,0.149-2.703,0.248-3.861l0.076-0.754c1.249-12.906,13.674-35.755,21.199-35.968
    c7.512,0.213,19.935,23.06,21.165,35.968l0.08,0.772c0.118,1.151,0.251,2.561,0.251,3.828c0,1.664-0.206,3.094-1.03,3.571
    l-1.842,0.865l-1.91,0.744c-13.027,5.429-14.126,15.083-14.126,28.302c0,1.319,0,2.667,0.024,4.043l0.016,2.237l0.088,5.002
    c0.067,1.689,0.122,3.37,0.122,4.982c0,1.655-0.055,3.255-0.186,4.8c-0.454,3.105-1.357,3.765-2.703,3.801
    C-52.302,249.01-53.186,248.349-53.619,245.184"></path>
  <path fill="#f7f4f0" d="M-87.34,197.4l-0.446-1.036c-2.126-5-2.908-11.521-2.908-17.633c0-7.52,1.161-14.428,2.359-17.145
    c1.206-2.84,2.26-3.097,3.593-3.425c3.791-0.93,12.05,6.209,12.817,8.306c-2.131,5.031-5.904,13.943-5.904,26.622
    c0,0.623,0.016,1.24,0.036,1.914c-0.719,0.445-1.717,1.071-1.717,1.071c-0.163,0.064-4.93,2.845-6.657,3.835
    C-86.572,199.302-87.074,198.105-87.34,197.4"></path>
  <path id="SVGID_10_" fill="#f7f4f0" d="M-105.996,205.649c-7.261-7.82-14.582-19.945-14.582-27.086c0-0.145,0-0.281,0.013-0.468
    c6.695-2.439,15.261-3.202,24.045-2.066c-0.046,11.77,1.907,20.012,6.321,26.674l-0.025-0.032l0.025,0.032l-0.361,0.188
    l-2.931,2.417c0,0-6.079,4.951-6.49,5.257C-100.521,210.48-102.404,209.485-105.996,205.649"></path>
  <path id="SVGID_9_" fill="#f7f4f0" d="M-86.996,222.299c5.042-4.918,11.927-9.79,16.232-8.636
    c3.597,0.962,5.629,5.628,5.629,12.149c0,1.582-0.126,3.277-0.359,5.047c0,0.003-0.387,0.213-1.831,0
    c-0.137-0.008-13.56-1.612-19.062-7.385C-87.061,222.75-87.097,222.422-86.996,222.299"></path>
  <path fill="#f7f4f0" d="M-124.755,200.356c8.826,0.034,17.304,9.833,18.672,12.799c0.452,1.057,0.557,1.557,0.589,1.814
    c-0.313,0.051-0.857,0.124-0.857,0.124c-3.808,0.035-10.523-3.426-14.651-7.625C-123.506,204.979-124.842,202.494-124.755,200.356"></path>
</svg>