<svg xmlns="http://www.w3.org/2000/svg" xmlns:xlink="http://www.w3.org/1999/xlink" version="1.1" id="open-quote" x="0px" y="0px" viewBox="0 0 24.306 19.372" enable-background="new 0 0 24.306 19.372" xml:space="preserve">
	<path fill="#64999F" d="M5.727,19.372c-0.929,0-1.741-0.193-2.438-0.58s-1.29-0.89-1.78-1.509s-0.864-1.328-1.122-2.129   C0.128,14.355,0,13.543,0,12.717c0-1.805,0.219-3.327,0.658-4.565c0.438-1.238,1.069-2.321,1.896-3.25   c0.825-0.929,1.806-1.767,2.94-2.516c1.135-0.747,2.373-1.509,3.715-2.282C9.569-0.103,9.879,0,10.138,0.412   c0.258,0.414,0.205,0.749-0.155,1.007c-0.825,0.619-1.6,1.226-2.321,1.818C6.938,3.831,6.319,4.45,5.804,5.095   C5.288,5.74,4.939,6.449,4.76,7.223C4.578,7.996,4.616,8.874,4.875,9.854c0.104,0.414,0.283,0.685,0.542,0.812   c0.258,0.13,0.696,0.221,1.315,0.271c1.187,0.104,2.076,0.555,2.67,1.354c0.593,0.801,0.89,1.794,0.89,2.979   c0,1.188-0.464,2.167-1.393,2.941C7.971,18.985,6.913,19.372,5.727,19.372z M19.733,19.372c-0.929,0-1.741-0.193-2.438-0.58   s-1.29-0.89-1.78-1.509s-0.864-1.328-1.122-2.129c-0.259-0.799-0.387-1.611-0.387-2.438c0-1.805,0.219-3.327,0.658-4.565   c0.438-1.238,1.07-2.321,1.896-3.25s1.806-1.767,2.94-2.516c1.135-0.747,2.373-1.509,3.715-2.282   c0.36-0.206,0.67-0.104,0.929,0.309c0.258,0.414,0.206,0.749-0.154,1.007c-0.826,0.619-1.6,1.226-2.322,1.818   c-0.723,0.594-1.342,1.213-1.857,1.857c-0.516,0.646-0.864,1.354-1.044,2.128c-0.182,0.773-0.143,1.651,0.116,2.631   c0.103,0.414,0.282,0.685,0.541,0.812c0.258,0.13,0.696,0.221,1.315,0.271c1.187,0.104,2.076,0.555,2.67,1.354   c0.593,0.801,0.891,1.794,0.891,2.979c0,1.188-0.465,2.167-1.394,2.941C21.978,18.985,20.92,19.372,19.733,19.372z"/>
</svg>
