<svg version="1.1" id="sscy" xmlns="http://www.w3.org/2000/svg" xmlns:xlink="http://www.w3.org/1999/xlink" x="0px" y="0px" viewBox="116.23 87.872 879.334 107.716" enable-background="new 116.23 87.872 879.334 107.716" xml:space="preserve">
  <path fill="#65989E" d="M159.203,103.81c-0.014-0.04-0.051-0.084-0.113-0.126l-0.023-0.085c0-0.396-0.107-0.7-0.299-0.885
    c-0.477-0.468-1.357-0.431-2.029-0.431c-0.139,0-0.271,0-0.363,0c-0.031,0-0.062,0-0.086,0
    c-8.539,3.028-11.316,12.187-12.111,19.427c-10.159-0.934-21.426-0.957-27.502,9.321c-0.022,0.02-0.033,0.046-0.033,0.097
    l-0.092,0.396c-0.337,1.681-0.621,3.112,0.306,4.634c-0.081,0.41,0.132,1.053,0.382,1.8c0.01,0.015,0.022,0.015,0.045,0.028
    c-0.007,0.067-0.007,0.152-0.007,0.22c-0.004,0.083,0.018,0.083,0.04,0.122c0.138,0.251,0.283,0.251,0.417,0.22
    c0.19-0.149,0.179-0.259,0.046-0.575c0.144-3.262,0.37-7.883,3.265-10.83c3.769-3.887,10.052-3.371,15.137-3.047l0.553,0.07
    c-0.059,0.153-0.204,0.212-0.408,0.419c-0.146,0.081-0.264,0.165-0.404,0.334c-0.01,0.019-0.021,0.033-0.029,0.051
    c-1.198,1.822-1.232,4.436-1.277,6.961c-0.069,4.235-0.141,8.248-4.9,8.776c-0.145,0-0.236,0.159-0.225,0.292
    c0.016,0.166,0.125,0.309,0.276,0.309l7.63-0.309c0.109,0,0.193-0.007,0.23-0.133c0.06-0.127,0.054-0.159-0.015-0.264
    c-0.584-0.815-1.475-0.815-2.293-0.815c-0.393,0-0.771,0-1.108-0.076c2.818-2.138,2.818-5.831,2.827-9.334
    c0.022-2.106,0.022-4.186,0.585-5.718c1.734-1.343,4.809-0.888,6.483-0.282l-1.752,16.33c-0.012,0.115,0.059,0.253,0.168,0.292
    c0.09,0,0.227,0,0.314-0.061c1.49-1.891,2.029-4.173,2.559-6.292c0.441-1.817,0.844-3.616,1.758-5.139
    c0.084-0.03,0.123-0.146,0.186-0.284c0.074-0.077,0.209-0.288,0.297-0.383c0.068-0.115,0.148-0.231,0.227-0.253
    c0.027,0.92,0,2.068-0.041,3.196c-0.135,3.072-0.23,6.189,0.941,8.436c0.023,0.107,0.092,0.161,0.158,0.176
    c0.088,0,0.17,0,0.236-0.069l0.42-0.35c1.342-1.08,2.98-2.427,3.578-4.104c0.064-0.128,0-0.317-0.111-0.317
    c-0.129-0.058-0.283,0-0.326,0.058c-0.533,0.937-1.174,1.963-2.033,2.072c-1.223-2.725-0.84-6.047-0.475-9.025
    c0.164-1.257,0.299-2.471,0.299-3.612c0-0.066-0.066-0.137-0.145-0.205c-0.098-0.068-0.238-0.034-0.295,0.077
    c-1.17,1.146-2.074,2.442-2.906,3.69c-0.123,0.144-0.248,0.299-0.381,0.581c-0.326,0.463-0.699,0.959-1.082,1.526
    c-0.26-0.614-0.104-1.352,0.088-2.08c0.148-0.63,0.312-1.21,0.139-1.723c-0.33-1.321-0.283-2.249,0.156-2.855
    c0.631-0.887,2.072-1.132,3.604-1.289c1.52-0.206,3.066-0.465,4.045-1.419c1.566-0.926,3.457-2.288,3.861-3.967
    c0.197-0.874,0.021-1.721-0.506-2.495c-0.045-0.156-0.16-0.192-0.305-0.156c-0.094,0.065-0.17,0.214-0.17,0.262
    c0.088,1.167-0.438,1.926-0.955,2.762c-0.271,0.486-0.547,0.869-0.777,1.468c-2.012,1.812-5.188,3.294-8.01,2.408
    c0.293-1.367,0.518-2.721,0.744-4.152c0.865-5.349,1.758-10.956,7.334-13.567c1.035-0.477,3.221-0.105,3.789,0.185l0.094,0.105
    c0.047,0.098,0.115,0.154,0.227,0.154c0.08,0,0.141-0.071,0.201-0.154C159.353,104.1,159.345,103.88,159.203,103.81"></path>
  <path fill="#65989E" d="M158.955,126.118c0.135-0.053,0.248,0.047,0.326,0.09c0.715,1.61-0.416,3.361-1.926,4.084
    c0,0.009-0.008,0.009-0.016,0.009l-0.895,0.248c-0.094,0.028-0.164,0.028-0.25-0.057c-0.049-0.063-0.088-0.063-0.088-0.146
    C155.982,128.414,157.187,126.654,158.955,126.118 M170.619,129.508c0.049-0.92,0.139-2.097-0.705-2.712
    c-0.105-0.047-0.203-0.055-0.277-0.003c-0.127,0.003-0.17,0.074-0.17,0.214v3.507c-0.633,3.46-3.168,6.757-6.174,8.064
    c-1.963,0.606-4.227,0.317-5.609-0.872c-1.51-1.524-2.127-4.151-1.488-6.369c3.199-1.518,5.004-3.242,5.525-5.309
    c0.029-0.154-0.039-0.221-0.139-0.309c-0.094-0.041-0.125-0.208-0.199-0.447c-0.074-0.292-0.141-0.597-0.416-0.695
    c-0.227-0.132-0.441-0.132-0.738,0.025h-0.021c-3.762,1.74-6.381,5.689-6.645,10.055c-0.139,2.565,1.105,4.843,3.545,6.342
    c0.045,0,0.08,0,0.119,0c3.514,0.601,6.07-1.212,8.498-3.001c0.369-0.243,0.732-0.489,1.104-0.713
    c0.031-0.038,0.064-0.072,0.086-0.114c0.387-0.638,0.848-1.261,1.277-1.864c0.969-1.256,1.988-2.723,2.439-4.277
    c0.016-0.014,0.016-0.096,0.006-0.146C170.556,130.438,170.583,130.022,170.619,129.508"></path>
  <path fill="#65989E" d="M335.013,145.55c-0.26-2.131-1.51-4.959-4.045-6.049c-0.861-1.817-2.604-3.027-4.305-4.238
    c-0.92-0.653-1.865-1.347-2.682-2.131c-0.041,0-0.139-0.005-0.262,0c-0.23,0-0.939,0-1.295-0.343
    c-0.238-0.237-0.293-0.419-0.258-0.668c0-0.189-0.051-0.209-0.193-0.27c-3.805-1.196-6.525-3.565-9.709-6.35l-1.367-1.236
    c-2.701-3.137-3.275-8.423-1.248-11.922c0.787-1.148,1.98-1.688,3.145-2.209c1.225-0.591,2.396-1.185,3.043-2.374
    c1.076,0.885,2.348,1.022,3.594,1.179c1.539,0.094,3.023,0.302,4.197,1.665c0,0,0,0.018,0.01,0.022
    c2.721,2.726,1.803,7.115,1.047,10.725c-0.02,0.036,0.018,0.163,0.107,0.256c0.086,0.031,0.135,0.135,0.248,0.29
    c0.33,0.349,0.703,0.752,1.188,0.752c0.113,0,0.158-0.049,0.189-0.085c0.049-0.025,0.072-0.14,0.049-0.253
    c-0.049-0.104,0.002-0.203,0.246-0.359c0.141-0.152,0.271-0.3,0.35-0.398c0.035-0.068,0.068-0.144,0.068-0.203v-10.238
    c0.754-1.078,0.697-2.174,0.621-3.328c-0.062-0.559-0.092-1.082,0.002-1.613c0.041-0.152-0.039-0.259-0.141-0.268
    c-1.779-0.811-3.688-1.114-6.002-0.916h-0.027c-4.32,0.63-8.508,2.109-11.742,4.112c-3.986,2.56-6.465,5.862-7.412,9.833l0,0
    c-0.977,5.531,0.463,10.429,4.012,13.306c0.066,0.102,0.215,0.113,0.303,0.055c0.066-0.055,0.141-0.077,0.141-0.201
    c0-0.114,0.006-0.166,0.115-0.166l0.25,0.167c-0.201,0.145-0.404,0.434-0.225,0.75c0.023,0,0.029,0.015,0.047,0.044
    c0.607,0.562,1.25,1.088,1.867,1.582c2.342,2.003,4.766,4.108,7.861,4.559l-0.191,0.245c-0.064,0.104-0.088,0.227-0.064,0.227
    c0.031,0.104,0.109,0.204,0.174,0.233c0.287,0.054,0.578,0.369,0.895,0.661c0.596,0.605,1.428,1.337,2.432,0.712
    c1.797,2.823,5.822,6.259,7.221,7.442c0.055,0.911,0.305,1.933,0.541,3.045c0.463,2.283,1.012,4.681,0.359,7
    c-1.527,4.724-5.779,7.915-12.686,9.622c-0.031,0-0.07,0.022-0.111,0.051c-0.188,0.229-0.469,0.083-0.908-0.051
    c-0.492-0.249-1.186-0.531-1.711,0.041c0.008-0.041,0-0.077-0.049-0.177c-0.094-0.113-0.203-0.146-0.268-0.113
    c-4.529,1.172-9.012-1.251-13.77-7.297c-0.322-0.327-0.48-0.917-0.672-1.521c-0.203-0.606-0.371-1.214-0.812-1.497
    c-0.029-0.146-0.092-0.321-0.133-0.395c-0.158-0.371-0.248-0.529,0.277-0.761c0.045-0.062,0.082-0.062,0.107-0.108
    c0.021-0.099,0.01-0.189-0.025-0.27c-0.756-1.501-0.607-2.805-0.375-4.235c0.084-0.744,0.232-1.504,0.182-2.362
    c0.881-4.056,5.004-5.519,8.336-6.72c0.09-0.021,0.166-0.102,0.193-0.212c0.025-0.067,0.01-0.105-0.039-0.208l-0.896-1.299
    C304.716,141,304.595,141,304.49,141c-5.664,2.41-9.613,6.041-10.828,9.995c-2.006,4.83-0.947,11.07,2.445,15.237
    c5.209,7.433,17.395,5.171,20.992,4.336c0.072-0.021,0.152-0.069,0.176-0.14c0.58-0.682,1.385-0.755,2.273-0.904
    c0.926-0.093,1.912-0.28,2.557-1.062C330.136,162.605,337.289,155.826,335.013,145.55"></path>
  <path fill="#65989E" d="M470.345,107.098c0-0.131-0.055-0.266-0.215-0.267c-1.33-0.182-2.467,0.627-3.4,1.41
    c-0.311,0.262-0.615,0.497-0.924,0.699c-3.006,1.513-3.312,5.157-3.566,7.863l-0.047,0.608c-0.104,0.833-0.791,4.803,0.211,5.847
    c0.084,0.116,0.146,0.198,0.293,0.198c-0.77,1.397-0.43,3.632-0.203,4.934c0.018,0.441,0.115,0.83,0.082,0.957
    c-0.025,0.163,0.059,0.23,0.215,0.282c0,0.027,0,0.027,0,0.027c-0.328,0.766-0.297,1.83-0.25,2.76
    c0.023,0.358,0.055,0.695,0.055,0.932c-1.193-0.214-1.926-0.818-2.791-1.547c-0.607-0.518-1.234-1.082-2.096-1.463
    c-0.061-0.072-0.193-0.028-0.281,0.08c-0.293,0.29-0.406,0.302-0.447,0.302c-0.205,0-0.279-0.28-0.494-0.453
    c-0.184-0.297-0.453-0.694-0.951-0.83c0,0,0-0.014-0.004-0.014c-1.912-0.345-3.633-1.204-5.447-2.139
    c-1.49-0.792-2.99-1.495-4.533-1.991l0.311-0.31c0.012,0,0.031-0.094,0.021-0.224c-0.01-0.092-0.021-0.092-0.057-0.129
    c-4.807-2.676-10.369-7.219-9.674-13.268c0.102-0.346,0.619-0.791,0.947-1.138c0.506-0.368,0.805-0.68,0.719-0.97
    c-0.047-0.091-0.123-0.294-0.379-0.313c-0.049-0.033-0.115,0-0.225,0c-0.707,0.604-1.24,1.237-1.795,2.039
    c-0.652,0.786-1.33,1.61-2.152,2.283c-0.031,0.023-0.049,0.058-0.076,0.078c-2.242,3.368-2.658,6.497-1.145,9.475
    c0.039,0.038,0.102,0.038,0.176,0.047c2.006,0.913,1.812,3.159,1.553,5.348c-0.045,1.07-0.178,2.192,0,3.001
    c-0.293,1.923-0.441,4.054-0.631,6.062c-0.613,6.667-1.254,13.559-5.641,18.228c-0.092,0.013-0.092,0.271,0,0.339
    c0.141,0.057,0.24,0.065,0.395,0c4.352-3.663,7.363-8.884,7.973-13.92c0,0,0.01-0.039,0-0.093c-0.227-0.625-0.021-1.43,0.084-2.223
    c0.219-1.145,0.512-2.33-0.346-3.249c0.543-1.693,0.672-3.883,0.857-6.045c0.025-0.963,0.119-1.957,0.26-2.865
    c2.582,2.054,5.455,3.782,7.93,5.346l1.777,1.012c0.053,0.1,0.238,0.061,0.328-0.052c0.197-0.167,0.295-0.174,0.299-0.188
    c0.027,0.036,0.141,0.233,0.213,0.416c0.098,0.358,0.324,0.734,0.705,0.93c0.113,0.042,0.256,0.017,0.297-0.088l0.906-0.91
    c0.02,0.038,0.1,0.055,0.201,0.055c0.127,0.033,0.283,0.06,0.387,0.09c0.004,0.163-0.166,0.293-0.326,0.423
    c-0.125,0.108-0.238,0.181-0.262,0.196c-0.033,0.066-0.09,0.183-0.055,0.275c0.021,0.012,0.039,0.122,0.066,0.182
    c1.645,0.837,3.639,1.901,5.227,2.194c0.889,0.965,2.031,1.557,3.229,2.172c1.467,0.668,2.91,1.465,3.941,2.953
    c0.006,0.021,0.018,0.03,0.018,0.035c0.578,0.496,1.047,1.251,0.898,1.584c-0.012,0.093-0.012,0.274-0.34,0.344
    c-0.139,0.062-0.244,0.188-0.244,0.234c0.006,0.168,0.111,0.296,0.254,0.296l0.697,0.227c0.537,2.287,1.143,5.418,1.736,8.752
    c0.004,0.104,0.186,0.193,0.305,0.193c0.148-0.033,0.281-0.106,0.281-0.282c-0.037-0.44-0.107-1.023-0.184-1.61
    c-0.158-1.914-0.402-4.224,0.543-5.632c0.266,0.169,0.309,0.451,0.439,0.776c0.084,0.17,0.121,0.285,0.152,0.52
    c0.078,0.085,0.268,0.1,0.338,0.085c0.166,0,0.234-0.151,0.223-0.319c-0.135-0.554,0.023-1.262,0.205-2.07
    c0.145-0.854,0.404-1.643,0.109-2.241c0-0.095-0.029-0.191-0.133-0.209c-0.117,0-0.145,0-0.158-0.316c0,0,0-0.081,0-0.163
    c0-0.049,0-0.066,0.041-0.109c0.061-0.02,0.141-0.02,0.176-0.02h0.02c0.055,0,0.09,0,0.209,0c0.1-0.009,0.141-0.108,0.146-0.22
    c0.207-0.989,0.012-1.908-0.146-2.802c-0.154-0.716-0.287-1.473-0.154-2.129c0.035-0.135,0-0.29-0.133-0.29
    c-2.783-0.924-2.559-3.333-2.279-5.792c0.102-1.183,0.27-2.388,0.004-3.413c0.125-1.395,0.17-2.896,0.201-4.407
    c0.1-6.355,0.303-13.011,5.463-16.089C470.345,107.29,470.361,107.141,470.345,107.098"></path>
  <path fill="#65989E" d="M519.654,127.095c-0.041-0.046-0.25-0.137-0.312-0.081c-7.553,2.495-15.123,1.746-22.98,0.675
    c0.164-0.286,0.371-0.436,0.762-0.602c0.436-0.265,0.816-0.463,1.076-0.975c0.064-0.148,0.033-0.237-0.025-0.298
    c-0.025-0.13-0.184-0.149-0.291-0.093c-2.85,1.366-5.645,2.889-8.717,4.996c-0.062,0.007-0.062,0.109-0.062,0.236v0.661
    c0,0.082,0.049,0.238,0.264,0.259l6.828,0.212c0,0.132,0.09,0.154,0.166,0.199c0.059,0.068,0.215,0.049,0.299-0.044l0.914-0.688
    c0.152,0.094,0.162,0.339,0.162,0.533c0,0.111,0.049,0.154,0.125,0.154c0.01,0.061,0.057,0.093,0.158,0.082
    c3.635-0.236,6.271-0.448,8.928-0.755c-1.201,1.442-1.619,3.382-2.104,5.2c-0.574,2.565-1.092,4.947-3.381,6.383
    c-3.314,2.259-8.098,2.706-14.469,1.509l-1.223-0.878c-2.111-1.45-3.938-2.73-5.652-5.104c-3.422-5.831-3.73-12.955-0.885-19.139
    c0.439-0.312,0.258-0.883,0.189-1.193c0-0.017-0.016-0.231-0.004-0.306c0.004-0.02,0.092-0.027,0.467,0.012
    c0.135,0.011,0.195-0.039,0.271-0.103c1.688-4.167,6.867-6.755,11.066-6.949v0.067c0,0.094,0.059,0.23,0.201,0.296
    c0.1,0,0.16,0,0.273-0.082l0.562-0.555c1.32-0.143,3.131,0.054,4.373,0.841c3.963,2.214,4.006,6.761,3.758,10.812
    c-0.004,0.179,0.125,0.234,0.205,0.254c0.607,0.19,0.922-0.134,1.205-0.384c0.111-0.104,0.234-0.22,0.305-0.291
    c0.047,0,0.111-0.102,0.088-0.265c-0.324-2.296-0.324-4.575-0.324-6.729c0-2.205,0-4.502-0.326-6.713
    c-0.025-0.079-0.033-0.153-0.039-0.205l-0.301-0.242c0-0.062-0.035-0.077-0.113-0.077c-5.932-0.421-11.689,0.578-16.584,2.796
    c-5.121,2.363-9.332,6.28-12.203,11.117c-0.033,0-0.033,0-0.039,0.014c-0.105,0.51-0.4,0.948-0.658,1.521
    c-0.617,1.205-1.262,2.531-0.557,3.807c-1.02,1.316-0.98,3.127-0.84,4.828c0.08,0.756,0.135,1.549,0.035,2.169v0.077
    c0.402,3.318,1.619,9.218,5.539,11.497c0.703,1.937,2.084,2.409,3.463,2.865c0.871,0.293,1.805,0.602,2.633,1.363
    c0.049,0.003,0.113,0.003,0.191,0.003c5.822,0.896,16.406,1.202,22.457-6.896l0.473,2.408c-0.473,2.357,0.926,4.487,2.121,6.32
    c0.48,0.877,1.031,1.593,1.336,2.388c0,0.057,0.158,0.135,0.303,0.091c0.078-0.023,0.203-0.085,0.215-0.216
    c0.102-2.567,0.199-5.041,0.275-7.541c0.117-4.917,0.193-9.967,1.211-15.587c3.439-0.571,7.678-2.52,9.057-3.311
    C519.654,127.403,519.654,127.278,519.654,127.095"></path>
  <path fill="#65989E" d="M227.242,135.362c-2.416,1.112-4.824,1.085-7.34,1.007c-1.762-0.032-3.586-0.07-5.422,0.325
    c-0.1,0.038-0.242-0.037-0.277-0.174c-0.049-0.046-0.037-0.204,0.021-0.333c1.066-1.059,2.117-2.754,3.279-4.56
    c0.912-1.519,1.848-3.017,2.809-4.244c0.012,0,0.023-0.014,0.023-0.021c1.51-1.697,3.146-3.594,2.979-6.25
    c-0.004-0.075,0.098-0.188,0.221-0.237c0.092-0.061,0.26,0.032,0.305,0.163c0.395,0.843,0.529,1.741,0.594,2.476
    c0.094,1.168,0.227,2.258,1.309,2.881c0.096,0.045,0.145,0.088,0.17,0.118c0.01,0.112-0.004,0.22-0.055,0.284l-0.455,0.55
    c0.252,0.95,0.545,1.872,0.824,2.832c0.475,1.621,0.955,3.273,1.207,4.901C227.449,135.263,227.384,135.298,227.242,135.362
      M246.318,146.056c-0.061-0.119-0.174-0.145-0.314-0.099c-0.611,0.271-1.086,0.802-1.588,1.285
    c-0.475,0.42-0.887,0.903-1.432,1.123c-2.002,0.197-3.07-1.79-4.088-3.719c-0.17-0.249-0.268-0.467-0.422-0.658
    c-0.668-2.429-1.879-4.811-2.922-6.909l-0.484-0.969c-0.135-2.1-0.832-4.545-1.812-6.595c-0.27-0.642-0.461-1.471-0.67-2.12
    c-0.359-1.341-0.752-2.731-1.471-3.942c-0.094-1.312-0.326-2.58-0.541-3.807c-0.314-1.799-0.621-3.691-0.621-5.868
    c0-1.075,0.969-2.119,1.721-2.894c0.096-0.112,0.219-0.144,0.311-0.315c0.064-0.11,0.039-0.259-0.055-0.37
    c-0.139-0.052-0.262-0.052-0.375,0.022c-0.078,0.117-0.145,0.215-0.215,0.237c-0.205,0.167-0.479,0.282-0.695,0.293l-0.127,0.032
    c-0.033,0.016-0.072,0.058-0.1,0.12c-0.699,0.762-1.564,1.613-2.514,2.433c-1.758,1.652-3.74,3.463-4.629,5.58
    c-0.168-0.369-0.383-0.668-0.613-0.944c-0.418-0.564-0.852-1.15-0.697-2.067c0.006-0.033-0.039-0.171-0.146-0.243
    c-0.098-0.071-0.188-0.143-0.32-0.334c-0.227-0.259-0.52-0.605-0.953-0.605c-0.084,0-0.209,0.075-0.26,0.193
    c-0.027,0.074-0.014,0.153,0.018,0.259c1.686,2.411,0.496,6.175-0.371,8.278c-1.391,1.746-2.557,3.778-3.689,5.764
    c-2.488,4.357-5.049,8.825-9.928,10.885c-0.1,0.023-0.188,0.182-0.17,0.292c0.016,0.081,0.115,0.215,0.207,0.254
    c0.764,0.09,1.301-0.078,1.723-0.621c0.154,0.028,0.357,0.028,0.531,0.028c0.344,0,0.648,0,0.871,0.069
    c-0.355,0.535-0.705,0.888-1.08,1.346c-0.672,0.737-1.316,1.47-1.529,2.263c-2.637-2.614-5.77-4.558-9.406-5.894
    c0.035-0.076,0.051-0.148,0.051-0.157c0-0.038-0.025-0.109-0.07-0.213c-0.857-0.814-2.098-1.313-3.285-1.859
    c-1.41-0.587-2.721-1.117-3.451-2.161c-0.039,0-0.057-0.019-0.088-0.046l-0.922-0.545c-2.289-1.165-4.268-2.143-6.283-4.25
    c-2.354-2.945-1.504-6.363-0.646-9.677c0.111-0.493,0.223-0.922,0.312-1.388c3.607-5.027,7.4-5.448,12.604-5.93l0.309,0.057
    c1.459,0.609,2.939,1.212,3.85,2.618c0.045,0.084,0.1,0.093,0.168,0.093c0.09,0,0.18,0,0.227-0.038l0.703-0.773l0.266,0.208
    l-0.705,0.841c-0.072,0.073-0.096,0.077-0.072,0.193c0.719,3.216,1.023,6.877,0.877,10.871c0,0.112,0.035,0.191,0.092,0.191
    c0.045,0.04,0.111,0.088,0.156,0.088h1.543c0.1,0,0.158-0.067,0.215-0.088c0.033,0,0.045-0.104,0.039-0.211
    c-0.4-3.767-0.377-7.58-0.344-11.235c0.012-1.841,0.012-3.544-0.016-5.257c-0.008-0.072-0.031-0.144-0.064-0.214l-0.877-1.127
    c-0.045-0.086-0.158-0.106-0.225-0.106c-6.465,0-11.604,0.725-15.645,4.239c-2.051,0.208-3.391,1.815-4.643,3.341
    c-0.891,1.07-1.822,2.151-3.014,2.748c-0.088,0.075-0.143,0.224-0.125,0.273c0.02,0.141,0.09,0.259,0.168,0.29l1.098,0.278
    c-0.029,0.035-0.051,0.038-0.088,0.038c-0.506,0.604-0.898,0.915-1.439,0.673c-0.143-0.069-0.281-0.018-0.344,0.155
    c-1.344,2.578-2.92,6.546-1.807,10.639c1.352,6.373,6.488,9.4,11.477,12.415c1.613,0.921,3.268,1.861,4.787,3.024
    c0.113,0,0.223,0,0.342-0.037l0.133-0.173c0.094,0.051,0.223,0.097,0.312,0.153c0.367,0.06,0.688,0.189,0.918,0.595
    c0.035,0.065,0.131,0.065,0.203,0.065c0.084,0.01,0.139,0,0.207,0l0.191-0.259c0.494,0.521,1.047,0.857,1.646,1.183
    c0.756,0.52,1.533,0.948,2.111,1.716c0.062,0.07,0.125,0.088,0.186,0.088c0.07,0,0.16,0,0.213-0.068l0.045-0.079
    c0.225,0.238,0.451,0.438,0.684,0.737c0.604,0.565,1.176,1.065,1.211,1.844c-1.533,2.229-3.65,3.974-6.105,5.125
    c-2.5,1.058-5.238,1.474-7.957,1.063h-0.033c-0.916,0-1.82-1.356-2.23-1.954c-0.043-0.013-0.152-0.058-0.287-0.013
    c-0.09,0-0.168,0.057-0.168,0.225c0,2.183,0.998,3.663,2.975,4.407c0.02,0,0.037,0.008,0.055,0.025
    c5.736,0.738,10.033-3.151,13.83-6.531l1.094-1.02c0.887,0.771,1.215,1.745,1.586,2.849c0.236,0.655,0.508,1.465,0.982,2.155
    c0.74,3.329,0.381,6.562-1.115,9.627c-1.297,2.68-3.436,5.022-6.15,6.808c-2.15,0.965-4.236,1.487-6.264,2.03
    c-1.205,0.296-2.352,0.599-3.496,0.983c-6.91,1.107-13.496-2.727-17.059-6.25c-0.094-0.142-0.256-0.149-0.346-0.036l-0.494,0.405
    l-0.283-0.259c0.742-1.209-0.035-2.397-0.736-3.356c-0.346-0.563-0.729-1.146-0.875-1.621c-0.271-0.767-0.484-1.688-0.643-2.579
    c-0.328-1.655-0.643-3.205-1.387-4.044c0.033-0.044,0.094-0.09,0.125-0.09h0.012c0.09,0.068,0.18,0.046,0.275-0.056
    c0.094-0.04,0.117-0.118,0.094-0.25c-0.291-1.005-0.02-2.036,0.25-3.049c0.26-0.973,0.5-1.894,0.078-2.711l0.17-0.085
    c1.035-1.071,2.59-2.611,3.344-4.221c0.918,0.247,1.727-0.047,2.598-0.352c0.693-0.269,1.418-0.573,2.211-0.573
    c0.158,0,0.256-0.096,0.256-0.287v-1.787c0-0.061-0.084-0.227-0.213-0.247c-5.381-0.515-8.518,3.913-11.02,7.48
    c-0.508,0.774-0.979,1.474-1.467,2.095c-0.035,0-0.041,0.01-0.045,0.089c-0.025,0.519-0.238,1.014-0.426,1.511
    c-0.471,1.138-0.949,2.387,0.246,3.501c-0.08-0.016-0.137-0.055-0.221-0.13c-0.209-0.132-0.453-0.197-0.693-0.132
    c-0.104,0-0.141,0.087-0.164,0.19c-0.883,3.09-0.004,5.871,0.832,8.632c0.143,0.563,0.301,1.093,0.43,1.541
    c0.006,0.012,0.006,0.039,0.006,0.059c1.48,3.195,4.201,6.076,7.705,8.17c3.547,2.144,7.518,3.191,11.15,2.899
    c1.227,0.067,2.279-0.226,3.223-0.481c1.15-0.34,2.115-0.611,3.004-0.13c0.062,0.005,0.158,0.005,0.225,0.005
    c0.066-0.005,0.102-0.044,0.139-0.123c0.234-0.479,0.555-0.479,1.174-0.424c0.188,0.01,0.326,0.017,0.514,0.017
    c0.041,0,0.066-0.007,0.09-0.032l0.811-0.364c1.531-0.809,3.623-1.817,5.518-2.406c0.018,0,0.041,0,0.078,0
    c0.375-0.261,0.684-0.608,0.992-0.903c0.645-0.842,1.07-1.236,1.803-0.912c0.098,0.056,0.182,0.046,0.281,0
    c7.412-5.461,11.42-12.77,11.678-21.104c0-0.074-0.078-0.203-0.207-0.26l-1.244-0.159c0.131-0.258,0.316-0.303,0.631-0.471
    c0.236-0.067,0.518-0.188,0.766-0.4c0.041-0.063,0.055-0.204,0.055-0.275c-0.09-0.582-0.133-1.173-0.213-1.747
    c-0.145-1.561-0.307-3.107-1.35-4.473c0-0.01-0.012-0.032-0.021-0.044c-1.873-1.883-0.561-3.235,0.967-4.893
    c0.721-0.672,1.443-1.471,1.809-2.269l1.447-0.1c4.584-0.146,9.764-0.392,13.504-3.421c1.375,0.002,1.883,1.701,2.352,3.438
    c0.25,0.83,0.51,1.691,0.846,2.43l0.08,0.438c0.23,1.349,0.594,3.442,2.105,4.506c0.258,2.498,1.576,5.44,3.492,7.912
    c0.061,0.031,0.201,0.057,0.316,0.031c4.178-1.785,8.084-5.117,10.416-8.837C246.433,146.229,246.408,146.144,246.318,146.056"></path>
  <path fill="#65989E" d="M425.949,108.939c-0.059-0.007-0.154-0.022-0.283,0c-3.699,1.716-8.232,1.268-12.637,0.916
    c-1.969-0.2-3.822-0.324-5.574-0.312c-0.045,0-0.135,0-0.207,0.064c-0.07,0.095-0.084,0.211-0.07,0.248
    c0.277,1.068,0.629,2.192,2.135,2.414h0.078l8.787-0.648c0.02,0,0.033,0,0.045-0.014c0.195-0.053,0.416-0.22,0.648-0.245
    c0.096-0.109,0.33-0.248,0.375-0.217c0,0.015,0.018,0.048,0.074,0.095c-0.074,0.109-0.123,0.123-0.223,0.165
    c-0.316,0.265-0.48,0.435-0.832,0.27c-0.055-0.005-0.115-0.005-0.191-0.005c-6.307,1.214-6.1,5.421-5.928,9.81
    c0.105,1.977,0.141,4.108-0.363,5.925c-0.029,0.083-0.016,0.19,0.043,0.273l0.496,0.831c-0.035,0.082-0.049,0.102-0.193,0.046
    c-0.105-0.039-0.154-0.006-0.225,0.058c-0.102,0-0.15,0.096-0.137,0.22c0.48,3.148,0.445,6.724,0.396,10.372
    c-0.018,1.881-0.035,3.855,0.033,5.741c0,0.075,0.051,0.179,0.086,0.248c0.027,0.047,0.139,0.047,0.266,0.047l0.369-0.163
    c-0.293,1.753,1.139,3.31,2.377,4.386c-0.609,0.295-1.479,0.295-2.322,0.295c-1.625,0-3.535,0.005-4.477,1.849
    c-0.051,0.037-0.037,0.169,0.043,0.274c0.078,0.006,0.119,0.062,0.223,0.04l8.334-1.241c0.146,0.702,0.52,1.241,0.891,1.814
    c0.332,0.598,0.652,1.083,0.797,1.69c0.088,0.124,0.164,0.192,0.354,0.134c0.109-0.01,0.184-0.095,0.145-0.29
    c-0.164-0.931-0.619-2.746,0.246-3.627l5.359,0.642c0.092,0.01,0.156-0.045,0.238-0.057c0.068-0.102,0.092-0.259,0.012-0.307
    c-0.662-1.217-1.969-1.155-3.209-1.114c-1.188,0.053-2.318,0.087-2.873-0.709c0.146-3.858,0.047-7.306-0.049-10.71
    c-0.064-3.927-0.119-7.706,0.049-11.753c0.082-0.422-0.178-0.706-0.416-0.878c-0.039-0.106-0.221-0.239-0.232-0.247
    c0.012-0.032,0.098-0.119,0.246-0.232c0.076-0.052,0.154-0.063,0.18-0.182c0.014-0.474,0.088-1.034,0.109-1.59
    c0.256-1.623,0.42-3.341-0.289-4.223c-0.143-0.163-0.334-0.4-0.607-0.422c0.016-0.04,0.055-0.067,0.09-0.107
    c0.246-0.259,0.465-0.467,0.648-0.467c0.125,0,0.158-0.025,0.184-0.032c0.062-0.037,0.088-0.138,0.088-0.239
    c-0.113-1.191,0.17-2.295,0.453-3.389c0.043-0.342,0.088-0.734,0.191-1.113c0.453-1.909,1.979-2.202,3.494-2.474
    c1.262-0.178,2.428-0.361,2.857-1.543C426.105,109.162,426.05,109.016,425.949,108.939"></path>
  <path fill="#65989E" d="M301.982,111.574c-0.072-0.122-0.172-0.207-0.316-0.122c-7.252,2.931-15.584,2.562-23.689,2.208
    l-4.232-0.176l-0.998-0.78c-0.049-0.254,0.143-0.444,0.459-0.77c0.312-0.329,0.699-0.714,0.699-1.21
    c0-0.143-0.08-0.265-0.137-0.265c-0.08-0.007-0.225,0-0.289,0c-0.859,0.605-1.748,1.208-2.596,1.747
    c-2.465,1.5-4.742,2.898-5.996,5.518c-0.061,0.027-0.051,0.164,0.018,0.267c0.043,0.02,0.111,0.052,0.182,0.052
    c4.797,0.245,9.146-0.032,13.316-0.318c1.373-0.016,2.742-0.13,4.15-0.232c-0.262,0.147-0.451,0.244-0.592,0.519
    c-1.797-0.163-3.453,1.526-4.725,2.829l-0.371,0.362c-0.047,0.076-0.059,0.15-0.059,0.164c0.182,2.09,0.012,4.198-0.078,6.1
    c-0.225,2.965-0.416,5.755,0.326,8.694c-0.326,0.868-0.6,2.358-0.004,3.094c-0.57,1.748-0.596,3.616-0.625,5.458
    c-0.08,2.94-0.168,5.966-2.314,8.304c-0.502,0.144-1.172,0.198-1.807,0.288c-1.318,0.101-2.748,0.17-3.111,1.605
    c-0.02,0.101-0.02,0.215,0.039,0.309c0.041,0.01,0.141,0.025,0.244,0.01c1.182-0.031,2.297-0.188,3.412-0.318
    c4.641-0.469,9.02-0.883,14.197,0.085c0.057,0.016,0.16-0.024,0.242-0.085c0.045,0,0.072-0.049,0.072-0.163
    c0-0.913-0.717-1.7-1.459-1.996c-0.039-0.02-0.057-0.025-0.07-0.025c-0.875,0-1.754-0.018-2.666-0.046
    c-2.24-0.059-4.605-0.107-6.566,0.131c0.416-0.248,0.822-0.372,1.311-0.606c0.783-0.318,1.605-0.599,2.338-1.207
    c4.258-2.446,3.953-7.695,3.682-12.336c-0.143-1.893-0.221-3.634,0-4.974c0.023-0.118-0.008-0.234-0.088-0.234l-1.002-1
    l0.021-0.067c0.104,0.013,0.193,0.019,0.238,0.031c0.27,0.056,0.291,0.074,0.32,0.114c0.016,0.143,0.174,0.244,0.297,0.208
    c0.107-0.021,0.225-0.196,0.225-0.249l-0.268-8.06c0.064-0.402,0.092-0.962,0.168-1.363c0.207-2.128,0.461-4.133,2.096-5.656
    c1.01-0.156,2.004-0.294,2.949-0.465c4.764-0.738,9.637-1.397,13.025-5.018C302.07,111.798,302.076,111.668,301.982,111.574"></path>
  <path fill="#65989E" d="M419.675,159.09c-0.43,0.02-0.918,0.02-1.357,0.02c-3.523-0.254-6.221-2.296-9.061-4.491l-0.926-0.652
    c-0.596-1.111-1.506-2.063-2.391-2.971c-0.703-0.704-1.461-1.501-1.945-2.233v-0.009c-0.178-0.204-0.354-0.535-0.508-0.907
    c-0.529-0.877-1.021-1.909-1.844-2.12c-0.123-0.027-0.229-0.038-0.264-0.038l0.15-0.138c0.123-0.121,0.137-0.31,0.055-0.327
    l-0.244-0.412c-0.014-0.021-0.02-0.04-0.035-0.061c-0.119-0.116-0.193-0.251-0.238-0.407c-0.146-0.32-0.291-0.655-0.607-0.852
    c-0.201-0.072-0.316-0.072-0.551-0.043l-1.531-2.529c-1.811-3.008-3.65-6.139-5.801-8.798c0.668-0.662,1.531-1.243,2.264-1.819
    c2.33-1.694,4.75-3.506,5.27-6.72c0.012-0.127-0.045-0.155-0.145-0.237c-0.07-0.088-0.133-0.088-0.271-0.021
    c-0.148,0.124-0.258,0.053-0.596-0.342c-0.012-0.011-0.039-0.053-0.057-0.079c0.045-0.028,0.074-0.042,0.117-0.05
    c0.277-0.282,0.395-0.287,0.545-0.241c0.117,0.052,0.178,0.052,0.215,0c0.102-0.045,0.176-0.054,0.191-0.158l0.367-4.125
    c0.006-0.05-0.029-0.198-0.158-0.273c-0.459-0.205-0.469-0.644-0.459-1.251c0-0.069,0-0.178,0-0.292c0,0-0.01-0.033-0.039-0.089
    c-0.533-0.812-0.836-0.828-1.252-0.828c-0.168,0-0.24,0-0.443,0c0.252-0.312,0.363-0.687,0.275-1.106
    c-0.059-0.568-0.59-1.053-1.203-1.298h-0.027c-0.416-0.017-0.91-0.364-1.367-0.791c-0.525-0.433-1.064-0.874-1.635-0.782
    c-0.152,0.045-0.324,0.052-0.479,0.23c0-0.008,0-0.008,0.014-0.024c0.059-0.09,0.059-0.154,0.004-0.187
    c-0.045-0.11-0.139-0.167-0.178-0.21c-3.947-0.989-7.893-0.671-11.781-0.359c-4.135,0.35-8.42,0.753-12.688-0.605
    c-0.035,0-0.092,0-0.17,0c-0.088,0-0.137,0.057-0.148,0.159c-0.27,0.893,0.188,1.588,0.559,2.162
    c0.039,0.089,0.057,0.102,0.086,0.194c0.066,0.113,0.178,0.175,0.258,0.175c1.559,0.022,3.383-0.054,5.352-0.211
    c5.867-0.35,12.574-0.662,16.385,3.57c1.207,1.201,1.273,3.023,1.43,4.77c0.104,1.254,0.137,2.387,0.66,3.199
    c-0.266,3.098-2.393,6.017-5.365,7.396l-0.006,0.015c-0.639,0.352-1.637,0.329-2.619,0.268c-1.438-0.094-3.121-0.223-3.615,1.351
    c-0.043,0.124-0.012,0.233,0.088,0.243c0.066,0.097,0.121,0.133,0.26,0.097c3.77-1.165,4.98,1.161,6.449,3.895
    c0.84,1.721,1.715,3.401,3.281,4.298c0.064,2.395,1.713,4.643,3.154,6.555c0.281,0.383,0.564,0.761,0.838,1.116
    c0.02,0.068,0.076,0.071,0.176,0.071c0.104,0,0.148,0,0.18-0.026l0.508-0.522c0.068,0.172,0.068,0.281,0.068,0.549
    c-0.014,0-0.027,0-0.068,0.033c-0.061,0.055-0.135,0.108-0.182,0.124c0,0-0.004,0-0.008-0.016c-0.064-0.054-0.207-0.021-0.318,0.08
    c-0.039,0.067-0.055,0.171-0.031,0.305c2.195,4.043,5.717,6.736,10.646,8.153c3.809,0.997,7.783,1.194,11.393,1.161
    c0.416,0.033,0.924,0.021,1.42-0.033c0.129-0.011,0.225-0.131,0.215-0.254C419.923,159.15,419.832,159.09,419.675,159.09"></path>
  <path fill="#65989E" d="M272.681,147.583c-0.098-0.127-0.201-0.132-0.34-0.058c-2.775,1.657-5.49,2.693-8.041,2.941
    c-2.926,0.325-5.643-0.273-8.139-1.759c-1.756-4.255-1.639-8.944-1.494-13.542c0.064-2.882,0.125-5.547-0.244-7.933l0.219-2.371
    c0.15-2.297,0.389-4.974,0.678-7.437c0.189-2.79,1.717-2.908,3.631-3.042c1.648-0.023,3.559-0.17,4.59-2.318
    c0.045-0.1,0.045-0.13-0.01-0.243c-0.033-0.105-0.104-0.154-0.215-0.154h-0.391c-0.055,0-0.117,0.022-0.172,0.121
    c-0.639,0.78-1.779,0.839-2.918,0.991c-0.939,0.102-1.904,0.142-2.637,0.667l-0.439-0.413c-0.072-0.061-0.168-0.091-0.207-0.091
    l-0.639,0.11c-3.811,0.379-8.131,0.735-12.418,0.135c-0.061-0.006-0.154,0.02-0.227,0.082c-0.035,0.073-0.07,0.177-0.07,0.214
    v1.261c0,0.189,0.102,0.245,0.273,0.25l6.102,0.311h0.02c0.574-0.025,1.113-0.187,1.59-0.315c0.982-0.181,1.816-0.297,2.57,0.025
    c-0.148,0.047-0.283,0.02-0.529-0.021c-0.104-0.004-0.254-0.004-0.326-0.004h-0.051c-5.666,0.916-5.268,5.916-4.951,9.98
    c0.09,0.905,0.148,1.778,0.148,2.514c0,0.066,0.01,0.133,0.035,0.198l0.223,0.319c-0.223,3.198-0.248,6.377-0.271,9.557
    c-0.059,6.721-0.158,13.063-1.773,19.279c-0.018,0.158,0.018,0.206,0.117,0.285c0.113,0.079,0.215,0.067,0.316-0.047
    c0.395-0.348,0.732-0.648,1.057-0.98c1.143-1.192,2.127-2.264,3.572-2.003c3.922,0.68,8.357,0.518,12.186-0.486
    c3.02-0.798,7.061-2.386,9.215-5.682C272.796,147.767,272.787,147.652,272.681,147.583"></path>
  <path fill="#65989E" d="M367.781,122.012c0.332-3.395-1.248-6.348-4.756-8.761c-0.014-0.015-0.031-0.042-0.039-0.042
    c-4.67-1.445-9.918-1.244-14.965-1.144c-3.941,0.161-7.686,0.211-11.049-0.397c-0.07,0-0.178,0.005-0.262,0.076
    c-0.029,0.114-0.055,0.221-0.055,0.221c0.033,0.261,0.033,0.461,0,0.672c-0.02,0.614-0.082,1.444,0.826,1.746
    c0.031,0,0.055,0,0.066,0c2.432,0.287,4.717-0.073,6.945-0.426c3.393-0.472,6.668-1.053,10.014,0.806l-0.021,0.027
    c-0.098,0.073-0.158,0.201-0.123,0.246c0.025,0.146,0.123,0.262,0.184,0.27c2.721,0.447,3.965,3.151,5.064,5.91
    c0.73,3.369,1.475,9.501-2.363,13.208c0,0-0.016,0.012-0.021,0.022c-1.154,1.355-2.955,1.392-4.725,1.425
    c-1.309,0-2.561,0-3.467,0.603c-0.111,0-0.176,0.095-0.156,0.253c0,0.039,0.084,0.122,0.18,0.188
    c2.986,1.224,5.979-0.148,8.594-1.38c0.797-0.397,1.547-0.758,2.297-1.058c0.654-0.23,1.328-0.737,1.953-1.261
    c0.705-0.486,1.354-0.977,1.957-1.131c0.053-0.023,0.139-0.106,0.166-0.158c0.113-0.262,0.215-0.442,0.438-0.636
    c0.318-0.47,0.678-0.968,0.543-1.783C366.886,128.254,367.781,124.758,367.781,122.012"></path>
  <path fill="#65989E" d="M384.169,152.886c-0.67-2.912-3.324-2.499-5.807-2.161c-1.213,0.259-2.467,0.415-3.516,0.259l5.262-3.356
    c0.068-0.044,0.104-0.126,0.107-0.213c0.912-2.624,0.639-5.23,0.426-7.843c-0.139-1.74-0.307-3.413-0.061-4.911
    c0.021-0.036-0.021-0.153-0.045-0.241l-0.449-0.387l0.449-0.514c0.023-0.068,0.045-0.068,0.045-0.129l-0.033-2.777
    c-0.012-3.102-0.045-6.554,0.297-9.203c0.342-1.019,0.311-2.185,0.283-3.252c-0.041-1.648-0.119-3.167,1.199-4.462
    c0.033-0.124,0.055-0.211,0.023-0.335c-0.033-0.13-0.158-0.189-0.299-0.172c-0.604,0.196-1.064,0.552-1.516,0.893
    c-0.529,0.302-0.932,0.616-1.508,0.643h-0.008c-5.535,1.207-5.467,7.058-5.443,11.322v1.209c0,0.133,0.045,0.147,0.156,0.188
    l1.082,0.564c-0.035,0.201-0.135,0.28-0.396,0.29c-0.277,0.107-0.629,0.274-0.83,0.606c0,0.006,0,0.014,0,0.033
    c-0.232,1.063,0.008,2.123,0.266,2.996c0.115,0.652,0.297,1.273,0.139,1.519c-0.078,0.156-0.029,0.289,0.098,0.343
    c0.09,0.107,0.238,0.088,0.354-0.045l0.055-0.01h0.023c-0.945,2.734-0.926,5.479-0.879,8.208c0.033,2.395,0.09,4.811-0.557,7.235
    c-0.984,1.884-3.125,2.303-4.951,2.635c-0.508,0.066-0.936,0.123-1.355,0.269c-0.057,0-0.113,0.057-0.143,0.089
    c-0.033,0.027-0.078,0.047-0.172,0.126c-0.248,0.19-0.695,0.508-0.486,1.023c0.025,0.093,0.156,0.164,0.309,0.114
    c4.916-1.212,10.689-1.245,17.572-0.226c0.078,0.022,0.203-0.024,0.271-0.118C384.169,153.095,384.169,153.005,384.169,152.886"></path>
  <path fill="#65989E" d="M352.408,153.089c-1.92-2.559-5.139-2.152-7.934-1.83c-0.395,0.021-0.799,0.021-1.139,0.051
    c0.488-0.314,1.133-0.484,1.785-0.654c1.65-0.585,3.574-1.219,3.025-3.89c-0.738-6.752-1.043-14.527-0.891-22.32
    c0.074-0.888,0.168-1.675,0.256-2.49c0.172-2.73,0.357-5.088,2.482-7.635c0.051-0.143,0.051-0.225,0-0.335
    c-0.053-0.138-0.23-0.187-0.32-0.112c-1.947,0.917-3.73,1.8-5.465,2.657c-4.5,2.147-3.947,6.33-3.488,10.393
    c0.199,1.687,0.441,3.37,0.244,4.885c-0.004,0.119,0.098,0.232,0.219,0.277l0.488,0.154l-0.621,0.65
    c-0.072,0.078-0.09,0.207-0.086,0.243c0.014,0.039,0.062,0.142,0.152,0.184c0.045,0.057,0.061,0.08-0.012,0.281
    c-0.078,0.143-0.166,0.436,0.012,0.62c0.066,0.13,0.182,0.154,0.361,0.215c-0.416,2.65-0.336,4.821-0.295,7
    c0.055,2.911,0.152,5.609-0.828,9.245l-0.375,0.373c-0.738,0.799-1.547,1.645-2.275,1.948c-0.123,0.061-0.16,0.146-0.135,0.316
    c0.023,0.103,0.164,0.158,0.299,0.146c4.396-0.891,9.891-0.891,14.258,0c0.127,0.012,0.252-0.044,0.287-0.062
    C352.453,153.279,352.453,153.095,352.408,153.089"></path>
  <path fill="#65989E" d="M607.345,143.894h-0.406c-0.189,0-0.248,0.129-0.248,0.244v0.187c-6.891,5.945-16.264,4.148-22.838,0.333
    l0.143-0.077c0.047-0.072,0.057-0.183,0.057-0.237c-0.145-0.607-0.688-0.881-1.168-1.012c-0.127-0.086-0.326-0.188-0.418-0.2
    c-0.314-0.921-0.822-1.509-1.318-2.004c-0.584-0.685-1.037-1.245-1.037-2.23c0-0.029-0.1-0.179-0.238-0.23
    c-0.041-0.061-0.178-0.03-0.291,0.073l-0.109,0.157l-0.238-0.317c0-0.895-0.314-1.847-0.611-2.796
    c-0.348-1.122-0.762-2.24-0.551-3.332c2.039-0.212,4.18-0.212,6.455-0.262c4.674-0.169,9.473-0.262,13.705-1.266
    c1.387-0.284,2.703-1.032,3.979-1.705c0.992-0.581,1.992-1.104,3.016-1.367c0.115-0.056,0.225-0.163,0.16-0.328
    c-0.035-0.122-0.16-0.19-0.305-0.136h-0.012h0.012h-0.012c-4.527,1.207-8.832,1.515-13.91,0.916c-0.098,0-0.133,0.032-0.145,0.084
    l-0.596,0.501c-1.648-0.307-3.785-0.279-6.049-0.279c-2.152,0-4.498,0.027-6.408-0.25c0.158-1.233,0.402-2.261,0.66-3.221
    c0.262-0.902,0.43-1.727,0.588-2.574c0.172-1.527,1.049-3.339,2.58-5.454c3.504-4.221,9.414-5.763,14.965-4.2
    c2.74,1.787,2.729,4.938,2.695,7.735l-0.023,0.833c0,0.105,0.047,0.161,0.068,0.161c0,0.048,0.09,0.098,0.178,0.098h0.668
    c0.066,0,0.234-0.098,0.234-0.259v-9.66c0-0.086-0.033-0.15-0.088-0.15c-1.531-2.008-4.002-1.813-6.367-1.649
    c-1.102,0.121-2.283,0.13-3.365,0.005c-0.031-0.005-0.043-0.005-0.043,0.014c-4.643,1.431-9.857,3.463-13.562,7.688
    c-0.045,0.124-0.045,0.286,0.023,0.346c-3.736,2.037-4.854,5.729-5.812,9.414l-0.258,0.641c-0.26-0.225-0.35-0.425-0.238-0.714
    c0.066-0.05,0.012-0.231-0.111-0.324c-0.035,0-0.238,0-0.293,0.039c-0.779,0.737-1.635,1.233-2.467,1.777
    c-1.273,0.759-2.604,1.527-3.445,2.873c-0.068,0.129-0.068,0.151,0,0.264c0.055,0.129,0.154,0.189,0.189,0.189h5.912l0.408,4.537
    c0,0.007,0,0.046,0,0.101c0.258,0.505,0.348,1.146,0.574,1.873c0.303,1.308,0.639,2.699,1.607,3.643l-0.369,0.299
    c-0.059,0.109-0.092,0.188-0.012,0.331c0.148,0.357,0.361,0.648,0.619,0.928c0.35,0.415,0.73,0.902,0.855,1.448
    c-0.553,1.055-1.451,1.497-2.365,1.979c-0.518,0.285-0.998,0.569-1.508,0.892c-6.207,2.209-13.613,0.908-20.055-0.606
    c-0.018,0-0.018-0.007-0.018-0.024c-0.018-0.354,0-0.385,0.104-0.416c0.084-0.067,0.186-0.17,0.145-0.305
    c-0.02-0.147-0.145-0.192-0.254-0.192c-1.141,0.045-2.105-0.833-3.021-1.593c-0.891-0.778-1.818-1.609-2.928-1.606l0.008-0.096
    c0.08-0.059,0.092-0.229,0.02-0.288l-0.309-0.546c-1.068-1.639-2.424-3.734-3.256-4.71c-0.074-0.078-0.074-0.126-0.168-0.126
    c-0.127,0-0.211,0.017-0.227,0.017c-0.258,0.032-0.293,0.032-0.418-0.017l0.434-0.377c0.068-0.135,0.078-0.29,0-0.36
    c-0.445-0.54-0.66-1.447-0.906-2.218c-0.303-1.054-0.607-2.056-1.504-2.433c0.039-0.109,0.162-0.122,0.299-0.276
    c0.135-0.099,0.283-0.158,0.305-0.188c0.039-0.068,0.088-0.174,0.088-0.259c0,0-0.049-0.086-0.088-0.139
    c-0.281-0.256-0.254-0.732-0.227-1.132c0.023-0.546,0.057-1.176-0.484-1.613c0.484-1.351,0.4-3.029,0.199-4.657
    c-0.102-1.086-0.154-2.141-0.053-3.059l0,0c0.822-7.888,6.729-15.273,14.463-17.861l0,0c0.707-0.286,1.521-0.286,2.41-0.286
    c1.221,0,2.467,0,3.463-0.965c1.018,0.132,1.988,0.357,2.9,0.429c1.023,0.224,2.105,0.34,3.041,0.537
    c5.51,1.521,6.037,7.257,6.477,12.371l0.158,1.174c0,0.075,0,0.145,0.125,0.214c0.449,0.152,0.672-0.139,0.795-0.425
    c0.115-0.028,0.25-0.177,0.293-0.279c0.104-0.039,0.172-0.09,0.148-0.22c-0.191-2.726-0.148-5.494-0.078-8.349
    c0.078-2.066,0.166-4.175,0.078-6.298c0-0.042-0.066-0.171-0.148-0.233c-2.883-1.273-6.576-1.273-9.785-1.273h-0.799l0,0
    c-7.484,0.899-13.879,3.053-19.002,6.505c-5.799,3.873-9.748,9.241-11.805,15.956c-0.031,0.086-0.031,0.18,0.018,0.214
    c0.244,0.427-0.018,0.968-0.258,1.553c-0.332,0.866-0.709,1.789,0.201,2.393c-0.307,3.395-0.307,6.14,0.02,9.433
    c0.02,0.118,0.088,0.232,0.191,0.246c0.393,0.231,0.488,0.603,0.652,1.155c0.037,0.346,0.17,0.83,0.561,1.09
    c-0.111,0.097-0.137,0.173-0.074,0.278c2.326,5.285,5.213,10.387,10.168,12.346c0.039,0.011,0.092,0.032,0.141,0.032
    c0.631,0,0.965,0.486,1.348,0.941c0.299,0.407,0.562,0.777,0.912,0.964c3.885,1.628,8.838,1.612,12.889,1.571l1.357-0.01h0.094
    l1.291-0.237c5.227-1.116,11.635-2.398,14.609-8.045c0.09,0,0.27-0.006,0.314-0.036c0.348-0.049,0.52-0.04,0.586,0.135
    c0,0.098,0,0.128-0.145,0.254c-0.037,0.026-0.094,0.08-0.117,0.111c-0.043,0.021-0.043,0.214-0.031,0.33
    c2.238,2.953,5.551,4.998,9.643,5.934c3.648,1.018,7.824,0.757,11.867-0.712c3.842-1.306,7.414-3.715,10.375-6.735
    c0.057-0.015,0.102-0.116,0.102-0.216v-0.884C607.593,144.023,607.423,143.894,607.345,143.894"></path>
  <path fill="#65989E" d="M749.832,139.166c-0.035-0.073-0.068-0.101-0.158-0.101h-0.656c-0.111,0-0.158,0.082-0.213,0.121
    c-1.361,3.13-4.516,4.199-7.736,4.941c-5.576,0.511-11.443,0.311-15.904-4.949c-0.066-0.068-0.135-0.104-0.17-0.113
    c-0.709-0.13-1.182-0.683-1.281-1.692c-0.014-0.02-0.033-0.095-0.09-0.135c-0.17-0.23-0.395-0.471-0.508-0.763
    c-0.428-0.55-0.812-1.047-1.564-1.176l0.146-0.114c0.031-0.056,0.076-0.159,0.076-0.236c-0.02-0.007-0.055-0.107-0.09-0.167
    c-1.598-1.365-1.531-4.33-1.125-5.878c2.219-0.244,4.492-0.293,6.928-0.293c7.939-0.186,16.139-0.313,22.051-4.777
    c0.137-0.061,0.191-0.182,0.1-0.347c-0.088-0.031-0.17-0.11-0.338-0.054l-2.512,0.872c-1.113,0.074-2.262,0.104-3.523,0.249
    c-3.4,0.256-6.881,0.545-10.115,0.399c-0.066-0.012-0.156,0.019-0.225,0.029c-0.359,0.292-0.967,0.292-1.574,0.277
    c-0.666-0.01-1.49-0.059-1.859,0.431c-0.033-0.076-0.059-0.101-0.059-0.101c0-0.172-0.146-0.315-0.236-0.315l-9.301-0.321
    c-0.822-2.849,0.527-5.122,1.859-7.496c0.539-0.927,1.123-1.864,1.484-2.787c4.076-3.917,7.682-6.801,14.146-5.127
    c3.436,1.172,3.898,4.53,4.258,7.717c0.1,0.801,0.262,1.673,0.359,2.522c0.01,0.065,0.18,0.183,0.258,0.183h0.387
    c0.178,0,0.246-0.134,0.246-0.245l0.27-11.995c0-0.013-0.023-0.116-0.035-0.177c-1.115-1.144-2.682-1.03-4.199-0.981
    c-0.779,0.082-1.568,0.166-2.355-0.032h-0.078c-9.65,1.665-20.666,7.451-22.838,18.796c-0.07,0.019-0.115,0.019-0.146-0.01
    c-0.059-0.047-0.195-0.237-0.26-0.38c-0.049-0.275-0.16-0.562-0.408-0.622c-0.109-0.035-0.213-0.015-0.248,0.057
    c-0.414,0.29-0.879,0.605-1.385,0.897c-1.812,1.253-3.859,2.733-4.809,4.078c-0.088,0.131-0.088,0.17,0,0.295
    c0.104,0.124,0.156,0.174,0.262,0.148c1.068-0.287,2.113-0.287,3.207-0.388c1.195-0.111,2.266-0.188,3.176-0.485
    c0.156,0.825,0.236,1.583,0.43,2.396c0.697,4.936,1.666,11.111,6.994,14.527c0.574,0.597,1.193,0.905,1.799,1.195
    c0.598,0.316,1.152,0.604,1.51,0.934c0,0.023,0.014,0.08,0.035,0.091c3.289,1.55,7.174,2.005,11.232,1.229
    c3.861-0.722,7.52-2.333,10.48-4.668c0.318-0.284,0.645-0.6,1.018-0.883c1.52-1.154,3.275-2.43,3.379-4.414
    C749.921,139.219,749.886,139.185,749.832,139.166"></path>
  <path fill="#65989E" d="M645.759,107.439c-0.01-0.171-0.166-0.282-0.314-0.245c-9.525,1.851-8.895,11.294-8.365,19.603
    c0.211,2.647,0.371,5.131,0.211,7.257c-1.125-1.324-2.531-2.149-3.926-3.022c-0.824-0.439-1.602-0.923-2.379-1.515
    c-0.025-0.008-0.035-0.008-0.045-0.008c-0.51-0.194-1.039-0.564-1.588-0.898c-0.979-0.608-2.016-1.291-2.951-1.249
    c-2.389-2.088-4.877-3.589-7.379-4.974c-3.885-2.225-7.6-4.282-10.336-8.608c-0.375-1.503-0.375-2.456,0.021-4.078
    c0.031-0.148-0.033-0.188-0.139-0.284c-0.055-0.088-0.232-0.05-0.303,0.063c-1.518,1.389-3.266,3.401-4.582,5.51
    c-0.023,0-0.023,0-0.059,0c-1.844,4.47,1.715,7.256,4.631,9.387c0.766,0.616,1.52,1.211,2.125,1.814
    c0.139,1.814,0,3.444-0.166,5.098c-0.146,1.616-0.316,3.37-0.146,5.183c0,0.292-0.113,0.645-0.293,0.998
    c-0.293,0.672-0.607,1.541,0.225,2.178c-0.527,0.826-0.707,1.917-0.842,2.851c-0.104,0.464-0.227,0.919-0.295,1.293
    c0,0.017-0.01,0.067-0.01,0.105c-0.285,4.675-1.195,11.246-6.645,14.037c-0.09,0-0.15,0.167-0.104,0.308
    c0.014,0.065,0.104,0.184,0.24,0.184h1.059c0.02,0,0.088-0.034,0.145-0.128c0.957-1.076,1.791-1.977,2.604-2.845
    c2.193-2.359,3.916-4.175,5.359-7.871c0.033-0.082,0.043-0.127,0.023-0.198c-0.125-0.626,0.109-1.231,0.369-1.835
    c0.418-0.916,0.893-1.862-0.055-3.027c1.082-2.419,0.955-5.587,0.947-8.689c-0.105-2.196-0.17-4.325,0.18-6.145
    c0.707,0.318,1.162,0.754,1.676,1.22c0.406,0.352,0.846,0.709,1.262,1.08c0.137,0.088,0.213,0.088,0.316,0l0.215-0.168
    c0.383,0.246,0.82,0.389,1.193,0.609c0.898,0.456,1.812,0.889,2.6,1.691c0.104,0.108,0.123,0.118,0.26,0.095
    c0.768-0.29,1.26,0.264,1.758,0.798c0.439,0.437,0.824,0.819,1.361,0.832c0.18,0,0.373-0.087,0.643-0.171
    c0.484,1.319,1.914,1.879,3.098,2.211c0.248,0.096,0.393,0.168,0.562,0.254c4.811,3.648,11.914,9.097,9.676,16.858
    c0,0.007,0,0.007,0,0.017c0,0.08,0.023,0.277,0.211,0.338c0.105,0.047,0.285-0.074,0.33-0.258c0.281-1.009,0.629-2.02,0.967-2.99
    c0.611-1.661,1.207-3.423,1.465-5.685c0.023-0.077-0.021-0.112-0.088-0.179c-0.059-0.05-0.104-0.08-0.148-0.143
    c-0.324-0.306-0.385-0.375-0.385-0.411c0.014-0.035,0.061-0.109,0.16-0.226c0.143-0.039,0.203-0.052,0.203-0.217
    c0-0.564,0.021-1.206,0.17-1.931c0.223-1.978,0.527-4.232-1.455-5.585c-0.225-2.884,0.078-6.092,0.381-9.536
    c0.309-2.936,0.602-5.979,0.518-8.87c0.645-2.92,1.838-8.161,5.668-9.597C645.75,107.726,645.775,107.516,645.759,107.439"></path>
  <path fill="#65989E" d="M682.66,108.217c-0.059-0.135-0.271-0.174-0.316-0.103c-2.412,1.36-6.074,1.429-9.371,1.568
    c-1.721,0.072-3.322,0.165-4.562,0.342c-0.045,0-0.1,0.039-0.133,0.062l-0.295,0.154c-0.27-0.064-0.617-0.092-0.988-0.203
    c-1.059-0.316-2.467-0.714-3.684,0.041c-0.035,0.062-0.113,0.09-0.104,0.228c0.023,0.059,0.035,0.127,0.068,0.147
    c-0.1,0.007-0.238,0.064-0.303,0.129c-0.193,0.065-0.314,0.099-0.553-0.039c0,0,0-0.008-0.021-0.008
    c-0.195-0.075-0.227-0.114-0.227-0.266c0-0.12-0.076-0.245-0.227-0.25l-12.162-0.417l-0.564-0.349l1.682-1.541
    c0.076-0.139,0.098-0.273,0.01-0.368c-0.023-0.151-0.205-0.204-0.305-0.11c-3.291,1.705-5.529,3.567-7.254,5.937
    c-0.01,0.059-0.01,0.189-0.01,0.313c0.021,0.013,0.135,0.078,0.271,0.101c4.109,0.333,7.881,0.273,11.473,0.231
    c1.566-0.028,3.201-0.037,4.893-0.028c-5.061,2.215-4.846,7.097-4.609,11.8c0.068,1.772,0.092,3.472-0.066,5.05
    c0,0.078,0.033,0.105,0.113,0.187l0.516,0.518c-0.045,0.293-0.111,0.583-0.168,0.895c-0.268,1.784-0.609,3.919,0.697,5.502
    c-0.1,0.051-0.168,0.051-0.402,0.024c-0.033,0-0.148-0.017-0.273-0.017c-0.043,0-0.076,0.044-0.156,0.126
    c-0.068,0.083-0.088,0.098-0.068,0.153c0.203,2.964-0.1,5.781-0.877,8.812c-0.76,1.852-2.434,2.396-4.066,2.949
    c-1.451,0.569-2.941,1.065-3.605,2.543c-0.033,0.127-0.021,0.159,0.082,0.264c0.098,0.11,0.188,0.134,0.279,0.082
    c5.709-2.408,12.748-2.899,19.732-1.503c0.123,0.033,0.166-0.046,0.26-0.159c0.078-0.032,0.078-0.186,0-0.312
    c-0.27-0.316-0.496-0.599-0.742-0.755c-0.295-0.283-0.566-0.488-0.746-1.083c-0.066-0.012-0.133-0.093-0.168-0.123
    c-2.533-0.484-5.014-0.193-7.4,0.089c-0.854,0.034-1.721,0.142-2.615,0.236l5.838-3.83c0.066,0,0.143-0.034,0.168-0.131
    l0.057-0.164c0.629-2.748,1.227-5.437,0.438-7.86c0.045-1.538,0.035-3.112,0.01-4.826c-0.043-3.252-0.088-6.667,0.385-10.323
    c0-0.112-0.02-0.224-0.1-0.294l-0.439-0.433c0.629-1.059,0.584-2.273,0.52-3.481c-0.049-1.015-0.08-1.972,0.234-2.734
    c0.799-1.819,3.041-1.819,4.73-1.808h0.295c3.648,0.116,10.549-0.313,14.818-4.597C682.679,108.45,682.691,108.334,682.66,108.217"></path>
  <path fill="#65989E" d="M718.958,149.17c-0.312-0.18-0.766-0.292-1.25-0.316c-0.99-0.26-2.221-0.47-2.973-1.191
    c-0.025-0.114-0.07-0.277-0.248-0.296c-0.193-0.124-0.418-0.009-0.678,0.048c-0.043,0.042-0.225,0.122-0.27,0.122
    c-0.021-0.035-0.031-0.17-0.031-0.309c0-0.187-0.035-0.191-0.195-0.242c-0.154-0.101-0.393-0.057-0.551-0.023
    c-0.17,0.027-0.27,0.027-0.348,0l0.178-0.211c0.025-0.142,0.016-0.309-0.045-0.346c-5.732-4.804-11.432-10.223-14.258-16.855
    l0.484-0.355c2.613-2.195,5.43-4.663,5.949-7.9c0-0.018,0-0.026,0-0.067c0-0.583-0.104-0.927-0.52-1.278
    c0.055-0.029,0.123-0.056,0.168-0.029c0.055,0.049,0.115,0.044,0.225-0.014c0.088-0.033,0.127-0.076,0.127-0.177l0.293-4.611
    c0-0.064-0.012-0.128-0.08-0.128c-0.252-0.386-0.449-0.91-0.52-1.506c-0.279-0.958-0.574-2.124-1.814-2.316l0.148-0.194
    c0.123-0.165,0.102-0.25-0.066-0.393c-2.311-2.086-6.736-2.539-9.711-0.922c-0.01,0.01-0.021,0.029-0.031,0.042
    c-0.607,0.561-1.41,0.997-2.133,1.363c-1.236,0.603-2.564,1.231-3.139,2.715c-0.066,0.037-0.012,0.215,0.098,0.311
    c0.049,0.006,0.195,0.006,0.307,0.006l2.748-1.82c1.836-0.915,3.516,0.205,4.922,1.208c0.281,0.194,0.562,0.332,0.848,0.586
    c1.947,4.369,1.789,9.783-0.352,13.792c-1.441,2.594-4.414,4.393-8.896,5.303c-0.146,0.024-0.193,0.207-0.17,0.285
    c0.012,0.179,0.055,0.289,0.26,0.289h3.119c1.236,1.426,2.398,2.795,3.525,4.226c1.711,2.138,3.389,4.229,5.213,6.077
    c0,0.006,0.012,0.006,0.012,0.006c5.732,5.154,13.877,6.314,19.596,5.602c0.082-0.034,0.193-0.163,0.203-0.22
    C719.152,149.276,719.048,149.183,718.958,149.17"></path>
  <path fill="#65989E" d="M689.673,150.458l-0.232-1.535c-0.049-0.058-0.125-0.192-0.262-0.192h-8.977
    c0.494-0.405,1.027-0.76,1.576-1.079c2.006-1.209,3.986-2.498,4.832-4.671c0-0.042,0-0.105,0-0.137v-32.576
    c0-0.1-0.012-0.12-0.033-0.168c-0.08-0.056-0.17-0.095-0.27-0.076c-0.258,0.062-0.484,0.125-0.711,0.125
    c-1.205,0.204-2.465,0.369-3.545,1.047c0,0.012,0,0.025-0.014,0.043c-1.182,1.038-2.613,1.735-3.93,2.468
    c-2.107,0.991-4.27,2.156-5.361,4.312c-0.045,0.14-0.035,0.294,0.045,0.309c0.09,0.074,0.18,0.113,0.248,0.087
    c1-0.253,1.734-1.004,2.363-1.664c0.777-0.843,1.5-1.549,2.438-1.625c0.064,0,0.143-0.062,0.223-0.116
    c0.281-0.285,0.539-0.311,0.809-0.238c0.463,0.22,0.848,1.064,0.859,1.605c-0.215,1.323-0.066,2.301,0.166,3.224
    c0.139,1.084,0.34,2.01-0.133,3.031c-0.012,0.043-0.033,0.097-0.033,0.14c-0.057,2.976,0.191,5.633,0.314,8.26
    c0.426,5.503,0.73,10.283-1.158,16.335c-0.744,1.499-2.277,1.885-3.766,2.354c-1.238,0.35-2.455,0.666-3.02,1.695
    c-0.029,0.129-0.02,0.188,0.059,0.282c0.09,0.119,0.215,0.15,0.262,0.096c5.797-2.218,12.408-1.735,16.936-1.043
    c0.115,0.036,0.25-0.011,0.25-0.074C689.654,150.677,689.687,150.567,689.673,150.458"></path>
  <path fill="#65989E" d="M819.041,119.403c0-0.056-0.012-0.088-0.049-0.131c-2.973-3.504-8.311-2.762-12.986-2.108
    c-1.699,0.246-3.252,0.51-4.627,0.545c0.721-6.228,2.004-11.142,5.957-14.818c1.398-0.996,4-2.455,6.803-1.503
    c1.385,0.59,1.23,2.086,0.844,3.63c-0.098,0.411-0.154,0.721-0.154,0.927c0,0.178,0.088,0.281,0.256,0.281
    c0.09,0,0.248-0.04,0.285-0.224c0.143-0.951,0.625-1.742,1.014-2.505c0.518-0.9,1-1.815,1.146-3.002
    c0-0.024-0.012-0.094-0.066-0.186c-1.443-1.543-3.855-1.094-5.619-0.807c-0.283,0.062-0.508,0.07-0.732,0.082
    c-0.025,0-0.045,0-0.08,0c-3.854,1.665-7.385,4.432-9.855,7.855c-2.688,3.626-4.1,7.707-4.057,11.876
    c-0.977,0.705-1.842,0.833-2.779,0.975c-0.688,0.143-1.406,0.197-2.229,0.585c-0.18-0.728-0.227-1.414-0.27-2.249
    c-0.092-1.784-0.248-3.635-1.658-4.93c-0.043-0.036-0.078-0.077-0.123-0.077c-2.402-0.737-4.471,1.195-5.971,2.578
    c-0.033,0-0.045,0.019-0.055,0.049c-0.361,0.596-0.756,1.211-1.25,1.872c-1.477,2.029-3.088,4.411-2.162,6.548
    c0.021,0.077,0.1,0.168,0.244,0.157c0.094,0,0.16-0.094,0.207-0.157l0.256-0.86c0.9-2.768,1.871-5.632,4.475-7.457
    c0.066,0.087,0.199,0.162,0.279,0.162c0.695,0.542,1.24,0.899,1.24,1.705c0,0.062,0,0.112,0.031,0.112
    c0.822,1.21,1.127,2.105,0.881,2.854c-0.303,1.089-1.623,1.779-3.074,2.525c-1.252,0.613-2.594,1.265-3.277,2.191
    c-0.039,0.145-0.039,0.296,0.012,0.327c0.076,0.128,0.234,0.176,0.291,0.114c0.695-0.272,1.453-0.617,2.117-0.969
    c1.17-0.506,2.377-1.049,3.367-1.314c-0.113,6.663-1.238,11.817-5.688,15.282c-1.664,0.376-3.064-0.597-3.557-1.652
    c-1.727-5.757,0.133-11.749,2.385-17.849c0.406-0.298,0.621-0.78,0.801-1.219c0.295-0.606,0.574-1.207,1.217-1.491
    c0.123-0.01,0.213-0.057,0.213-0.218v-0.472c0-0.15-0.07-0.239-0.213-0.239c-0.08-0.034-0.17,0-0.271,0
    c-4.908,4.583-7.691,9.077-8.58,13.566c0,0.022,0,0.044,0,0.058c0.023,1.21-0.068,2.418-0.225,3.618
    c-0.139,2.163-0.375,4.527,0.506,6.887c0,0.054,0.012,0.069,0.012,0.069c0.109,0.237,0.314,0.472,0.447,0.731
    c0.859,1.458,1.982,3.34,4.428,2.382c0.012,0,0.033-0.018,0.045-0.047c3.648-2.523,6.588-5.504,8.66-8.802
    c2.166-3.562,3.4-7.382,3.684-11.487c1.205-1.405,3.537-1.822,5.316-1.687l-0.609,5.185c-0.705,1.733-0.676,4.749-0.662,6.78
    l0.021,0.377c-0.125,0.013-0.17,0.092-0.225,0.225c-0.541,1.245-0.689,2.755-0.811,4.236c-0.137,1.72-0.307,3.461-1.105,4.842
    c-0.021,0.013-0.045,0.049-0.045,0.092c-0.631,3.528-2.15,7.356-4.121,10.583c-2.973,3.238-7.107,6.659-12.289,4.737
    c-2.061-0.792-3.324-2.724-3.816-5.881c-0.037-0.171-0.113-0.192-0.27-0.181c-0.135,0-0.203,0.049-0.203,0.242v5.212
    c0,0.007,0.012,0.081,0.043,0.148c0.16,0.231,0.338,0.479,0.541,0.771c0.721,1.181,1.453,2.17,2.85,2.653
    c0.023,0.015,0.023,0.015,0.035,0.015c3.219,0.542,6.26-0.322,9.334-2.678c2.717-2.117,5.125-4.99,7.256-7.566
    c0.596-0.7,1.18-1.439,1.779-2.097c0,0,0,0,0.012-0.013c3.93-6.647,4.896-13.994,5.943-21.768c0.318-2.426,0.656-4.923,1.037-7.433
    l12.828-0.208l2.684,1.892c0.877,1.138,0.492,2.726,0.188,3.937c-0.135,0.604-0.258,1.152-0.258,1.498
    c0,0.146,0.104,0.296,0.238,0.315c0.078,0,0.246-0.041,0.291-0.223c0.123-0.384,0.316-0.82,0.475-1.265
    C818.812,123.833,819.679,121.653,819.041,119.403"></path>
  <path fill="#65989E" d="M972.539,125.221c-2.828,0.972-6.127,0.96-9.279,0.94l-1.736-0.042c-0.08,0-0.18-0.053-0.227-0.154
    c-0.043-0.088-0.055-0.113-0.023-0.214c0.635-1.601,1.375-3.168,2.062-4.695c1.793-3.848,3.65-7.883,4.279-12.34
    c0.021-0.07,0.137-0.212,0.273-0.212c0.154,0.021,0.244,0.142,0.244,0.226c0.385,3.273,1.512,6.546,2.592,9.598
    c0.811,2.318,1.576,4.486,1.994,6.593C972.753,124.982,972.671,125.164,972.539,125.221 M994.128,132.095
    c-0.066-0.116-0.156-0.167-0.26-0.167h-0.9c-0.068,0-0.18,0.023-0.215,0.113l-0.156,0.25c-1.635,2.371-3.277,4.792-6.287,4.625
    c-1.494-1.146-2.184-2.567-2.936-4.069c-0.184-0.442-0.398-0.895-0.621-1.218c-3.66-8.172-6.59-17.197-8.246-25.407
    c0-0.034,0-0.05-0.012-0.077c-0.809-1.73-0.572-3.86,0.609-6.183c0.08-0.092,0.035-0.255-0.078-0.356
    c-0.145-0.032-0.26-0.032-0.34,0.101c-0.777,1.078-1.902,1.983-2.971,2.892c-1.6,1.258-3.254,2.647-3.738,4.597l-0.148-0.096
    c-0.1-0.118-0.215-0.158-0.305-0.082c-2.275,1.11-3.559,1.766-5.527,3.447c-0.045,0.036-0.072,0.059-0.09,0.079
    c-0.025,0.028-0.037,0.039-0.047,0.076l-0.023,0.008c-0.078,0.127-0.078,0.242,0,0.389c0.088,0.05,0.248,0.054,0.348,0.03
    c0.047-0.033,0.092-0.071,0.127-0.126c0.203-0.165,0.383-0.165,0.529-0.094c0.258,0.154,0.461,0.371,0.461,0.571
    c-0.766,4.173-1.531,8.436-3.301,12.143c-0.9,2.314-2.973,3.102-5.135,3.948c-1.375,0.528-2.795,1.125-3.953,2.065
    c-0.078,0.096-0.123,0.27-0.059,0.327c0.059,0.163,0.17,0.23,0.293,0.189c1.105-0.311,2.57-0.271,3.842-0.246
    c0.541,0,1.059,0,1.521,0c-3.074,6.282-7.488,12.396-13.9,19.366c-0.088,0.129-0.1,0.273,0,0.355
    c0.09,0.147,0.227,0.179,0.363,0.044l3.408-2.394c4.473-2.875,7.168-7.404,9.746-11.658c1.328-2.205,2.59-4.231,4-6.133
    c3.545-0.449,8.062-1.169,12.207-3.466c0.303,0.861,0.652,1.74,1.014,2.542c0.697,1.63,1.441,3.245,1.664,4.767
    c0.014,0.085,0.023,0.124,0.072,0.171c1.102,1.304,1.475,3.35,1.709,4.706c0.035,0.067,0.068,0.144,0.1,0.168
    c0.498,0.387,0.701,0.904,0.926,1.545c0.092,0.269,0.156,0.551,0.281,0.762c0.012,0.1,0.078,0.112,0.137,0.112
    c0.697,0.285,0.811,0.785,0.965,1.597c0.115,0.597,0.215,1.312,0.723,1.777c0.068,0.098,0.205,0.128,0.305,0.063
    c4.764-2.515,9.291-6.346,13.854-11.785C994.14,132.257,994.15,132.229,994.128,132.095"></path>
  <path fill="#65989E" d="M870.554,104.413c0.09,0,0.182,0.006,0.217,0c0.055,0,0.123,0,0.199-0.036l0.238-0.431
    c0.08-0.127,0.055-0.198-0.023-0.316c-0.518-0.589-1.451-0.896-2.334-1.188c-0.922-0.292-1.867-0.592-2.238-1.181
    c-0.035-0.118-0.104-0.182-0.203-0.182c-6.035,0.169-9.168,5.257-11.904,9.751l-0.709,1.21h-0.137
    c-0.135,0-0.248,0.174-0.248,0.262v0.942c-1.666,2.063-2.613,4.76-3.514,7.232c-0.248,0.677-0.508,1.379-0.732,2.054
    c-0.482-2.176-1.34-4.356-2.625-6.911c-0.01-0.017-0.01-0.017-0.01-0.017l-0.316-0.437c-3.568-5.463-7.568-11.668-14.189-14.303
    c-0.123-0.044-0.248-0.017-0.283,0.084c-0.934,0.742-2.465,1.336-2.994,1.454c-0.021,0.019-0.037,0.041-0.066,0.071
    c-0.711,0.691-1.475,1.339-2.332,1.947c-1.783,1.495-3.594,3.021-4.719,4.727c-0.068,0.108-0.082,0.108-0.068,0.178
    c0.047,0.197,0.031,0.292,0,0.532c-0.035,0.293-0.08,0.662,0.43,0.898c0.076,0.043,0.146,0.041,0.234,0
    c0.723-0.338,1.262-1.107,1.756-1.814c0.891-1.198,1.734-2.262,3.244-2.108c3.828,2.28,7.268,5.134,10.023,8.306
    c3.029,3.48,5.09,7.303,5.982,11.052c0.012,0.004,0.023,0.004,0.023,0.004c0.662,1.21,0.652,2.104,0.639,3.026
    c-0.012,0.889-0.033,1.812,0.588,3.021c0,0.523-0.113,1.09-0.268,1.708c-0.32,1.396-0.678,3.097,0.221,4.343l-0.787,0.896
    c-0.035,0-0.045,0.017-0.057,0.07c-0.461,2.784-1.746,4.644-3.738,5.57l-0.191,0.042c-1.682,0.228-3.785,0.555-4.303,2.265
    c-0.023,0.141,0,0.234,0.057,0.253c0.055,0.102,0.178,0.13,0.268,0.066c5.768-2.288,12.91-1.901,19.104-1.275
    c0.123,0.02,0.225-0.022,0.256-0.06c0.049-0.13,0.035-0.277-0.02-0.288c-2.018-2.409-4.789-2.093-7.49-1.746
    c-1.307,0.261-2.604,0.385-3.738,0.261c0.045-0.019,0.057-0.088,0.088-0.146c0.281-0.312,0.518-0.461,0.834-0.437
    c0.033,0.02,0.082,0.02,0.123-0.016c0.43-0.102,0.846-0.325,1.262-0.536c0.924-0.394,1.904-0.855,2.627-0.979
    c0.043-0.012,0.111-0.02,0.168-0.02l1.902-1.814c0.043,0,0.066-0.079,0.066-0.176c0-0.084-0.008-0.116-0.066-0.141l-0.246-0.29
    c0.832-1.672,0.832-4.292,0-6.039c0.057-0.01,0.156-0.027,0.213-0.01c0.07,0,0.182,0,0.283-0.017
    c0.066-0.075,0.09-0.219,0.066-0.271c-0.834-5.291,0.262-10.886,3.018-16.197c2.568-4.885,6.42-9.128,10.871-11.943
    c0.324-0.144,0.65-0.293,1-0.511C867.546,104.085,869.158,103.224,870.554,104.413"></path>
  <path fill="#65989E" d="M941.564,106.831l-0.021-3.021c-0.014-0.035-0.033-0.14-0.066-0.203l-0.904-0.873
    c-0.02-0.054-0.08-0.091-0.121-0.101c-3.705-0.952-7.863-1.24-11.951-0.601c-4.199,0.676-8.084,2.171-11.17,4.372
    c-0.025,0-0.025,0-0.025,0.012c-0.305,0.261-0.65,0.518-0.98,0.765c-1.416,1.152-2.928,2.361-3.66,3.883c-0.008,0-0.043,0-0.064,0
    c-0.092,0.143-0.113,0.207-0.271,0.12c-0.135-0.054-0.248,0.01-0.316,0.163c-0.068,0.03-0.053,0.218,0.045,0.32l0.17,0.138
    c-0.012,0.016-0.033,0.051-0.033,0.067c-0.27,0.221-0.43,0.395-0.754,0.203c-0.135-0.067-0.271,0.018-0.338,0.2l-0.449,0.896
    c-1.037,2.134-2.008,4.204-2.256,6.539c0,0.033,0,0.089,0,0.12c0.297,1.151,0,2.416-0.281,3.635
    c-0.35,1.528-0.707,3.116-0.088,4.541c-0.092,1.452,0.064,3.528,0.92,5.342c0.139,0.233,0.285,0.391,0.496,0.4
    c0.297,0.113,0.541-0.01,0.711-0.152c0.023-0.015,0.023-0.015,0.033-0.021v0.119c-0.1,0.082-0.168,0.214-0.26,0.168
    c-0.09-0.037-0.16-0.037-0.234,0.02c-0.113,0.088-0.158,0.171-0.158,0.207c0.135,2.677,2.826,4.906,5.01,6.701
    c0.596,0.524,1.117,0.984,1.59,1.42c0.1,0.068,0.27,0.053,0.359,0l0.115-0.096c2.352,1.597,6,2.536,9.381,2.536
    c6.891,0.218,12.387-2.347,14.631-6.684c0.057-0.144,0.021-0.281-0.049-0.299c-0.08-0.126-0.223-0.144-0.303-0.067
    c-1.049,0.539-2.096,0.837-3.266,1.158c-0.607,0.139-1.25,0.376-1.893,0.573c-6.33,1.222-12.939-1.302-17.717-6.652
    c-1.777-2.841-2.377-5.445-3.074-8.49c-0.18-0.734-0.338-1.539-0.549-2.3c0.225-2.604,0.832-6.295,2.486-9.612
    c1.691-3.337,4.1-5.634,7.152-6.657c0.023,0,0.023,0,0.037-0.007c3.77-2.239,9.559-1.005,12.521,0.302
    c3.717,1.812,4.156,6.293,4.156,9.461c0,0.208,0.133,0.244,0.258,0.244h0.629c0.158,0,0.238-0.025,0.273-0.187
    C941.644,113.016,941.609,109.855,941.564,106.831"></path>
  <path fill="#65989E" d="M899.039,125.814l-0.494,0.378c0.617,4.451-0.914,9.07-4.07,12.097c-4.783,4.771-11.318,6.131-17.467,3.682
    c0,0-0.033-0.014-0.033-0.023c-7.85-4.371-11.422-13.045-9.822-23.79c0.678-5.882,6.117-10.116,10.893-11.584
    c4.908-1.309,10.371,0.051,13.605,3.565c1.25,0.766,2.084,1.825,2.873,2.824c0.371,0.513,0.732,0.92,1.102,1.397
    c0.012,0.023,0.045,0.023,0.045,0.023c0.227,0.608,0.506,1.21,0.801,1.773c0.574,0.989,1.127,2.171,1.146,3.492
    c0.744,1.588,0.98,3.735,0.902,5.204l0.52,0.517c0.1,0.091,0.123,0.188,0.113,0.221
    C899.152,125.643,899.128,125.747,899.039,125.814 M902.81,112.269c0,0,0-0.034,0-0.042c-3.975-6.607-12.082-8.968-18.336-8.968
    c-9.133,0.239-17.545,5.228-22.492,13.252c-0.053,0.121-0.02,0.292,0.025,0.298l0.109,0.153c-1.094,1.773-2.805,4.646-1.777,7.023
    c-0.012,0.005-0.035,0.029-0.057,0.041c-0.045,0.034-0.09,0.034-0.102,0.034h-0.014c-0.074,0-0.189,0-0.268,0
    c-0.057,0.022-0.113,0.149-0.113,0.265l-0.246,6.384c0,0.009,0,0.009,0.02,0.032c0.305,0.758,0.533,1.499,0.744,2.392
    c0.631,2.118,1.295,4.24,3.289,5.304c-0.033,0.062-0.088,0.05-0.137,0.028c-0.154-0.062-0.258,0-0.303,0.115
    c-0.078,0.043-0.078,0.224,0.025,0.317c0.223,0.289,0.447,0.59,0.684,0.883c0.801,0.929,1.588,1.938,2.986,2.177
    c0.688,1.749,2.355,2.344,3.922,2.892c0.662,0.238,1.395,0.461,2.002,0.812c0.066,0.049,0.102,0.062,0.145,0.062
    c0.939-0.144,1.984,0.116,3.066,0.431c1.609,0.373,3.256,0.832,4.75,0.114l0.51,0.491c0.113,0.108,0.258,0.108,0.385,0l0.582-0.583
    c2.93-0.312,7.312-1.155,11.568-3.51c4.053-2.271,6.947-5.294,8.648-9.069c1.85-2.839,2.803-6.51,2.803-10.6
    C905.23,119.2,904.367,115.306,902.81,112.269"></path>
  <path fill="#65989E" d="M957.638,118.933c-0.092-0.089-0.229-0.124-0.328-0.038l-1.477,0.835l-2.24,0.216
    c-5.932,0.575-11.484,1.113-17.074,0.201c-0.203-0.188-0.373-0.336-0.418-0.61c-0.02-0.168,0.016-0.338,0.158-0.579
    c0.1-0.028,0.082-0.24-0.031-0.341c-0.082-0.02-0.207-0.053-0.326,0c-0.801,0.581-1.682,1.094-2.559,1.588
    c-1.533,0.947-3.143,1.958-4.471,2.968c-0.057,0.089-0.092,0.265-0.057,0.282c0.023,0.146,0.113,0.239,0.25,0.256l2.352,0.062
    c4.225,0.109,9.877,0.287,13.967,0l-2.084,1.577c-0.021,0.019-0.057,0.067-0.082,0.093c-3.814,6.071-1.08,13.454,2.414,17.977
    c0.09,0.09,0.191,0.142,0.293,0.101c0.121-0.028,0.182-0.101,0.191-0.188c0.391-3.005,0.369-5.703,0.369-8.383
    c-0.033-2.407-0.033-4.601,0.258-6.941c0,0,0,0,0-0.015c-0.395-1.8-0.291-3.073,0.307-3.938c0.881-1.352,2.76-1.669,4.74-2.022
    c2.33-0.394,4.73-0.764,5.879-2.807C957.74,119.145,957.714,118.943,957.638,118.933"></path>
</svg>